<svg fill="#ff3d4f" xmlns="http://www.w3.org/2000/svg" viewBox="0 0 52.01 49.45"><title>Recurso 1</title><g id="Capa_2" data-name="Capa 2"><g id="Capa_1-2" data-name="Capa 1"><path d="M0,0H6.94L33.69,0a18.27,18.27,0,0,1,6.89,35.21c-.26.11-.5.24-.89.43L49,49.45h-6.1c-2.88,0-5.76,0-8.63,0A1.78,1.78,0,0,1,33,48.86c-5.68-8.32-11.31-16.67-17.11-25.25h1.4c5.52,0,11,0,16.55,0A5.3,5.3,0,0,0,36.05,13.5a7.34,7.34,0,0,0-2.9-.56c-7.79,0-15.59,0-23.39,0A1.81,1.81,0,0,1,8,12C5.59,8.34,3.11,4.71.65,1.07.46.78.29.47,0,0Z"/></g></g></svg>