<svg height="512" viewBox="0 0 128 128" width="512" xmlns="http://www.w3.org/2000/svg" xmlns:xlink="http://www.w3.org/1999/xlink"><linearGradient id="a" gradientUnits="userSpaceOnUse" x1="94.051" x2="33.949" y1="94.051" y2="33.949"><stop offset="0" stop-color="#8a21ed"/><stop offset="1" stop-color="#fc68c0"/></linearGradient><path d="m96.285 49.535v7.229a1.75 1.75 0 1 1 -3.5 0v-7.229a28.785 28.785 0 0 0 -57.57 0v28.93a28.785 28.785 0 0 0 57.57 0v-2.3a1.75 1.75 0 1 1 3.5 0v2.3a32.285 32.285 0 0 1 -64.57 0v-28.93a32.285 32.285 0 0 1 64.57 0zm-1.75 15.045a1.752 1.752 0 1 0 1.75 1.753 1.749 1.749 0 0 0 -1.75-1.753zm-30.535-35.557a7.5 7.5 0 0 1 7.492 7.491v11.777a7.492 7.492 0 0 1 -14.984 0v-11.777a7.5 7.5 0 0 1 7.492-7.491zm0 3.5a4 4 0 0 0 -3.992 3.991v11.777a3.992 3.992 0 0 0 7.984 0v-11.777a4 4 0 0 0 -3.992-3.991z" fill="url(#a)"/></svg>